<?xml version="1.0" encoding="UTF-8" standalone="no"?>
<!-- Created with Inkscape (http://www.inkscape.org/) -->

<svg
   xmlns:dc="http://purl.org/dc/elements/1.1/"
   xmlns:cc="http://creativecommons.org/ns#"
   xmlns:rdf="http://www.w3.org/1999/02/22-rdf-syntax-ns#"
   xmlns:svg="http://www.w3.org/2000/svg"
   xmlns="http://www.w3.org/2000/svg"
   xmlns:sodipodi="http://sodipodi.sourceforge.net/DTD/sodipodi-0.dtd"
   xmlns:inkscape="http://www.inkscape.org/namespaces/inkscape"
   id="svg7473"
   version="1.1"
   inkscape:version="0.48.5 r10040"
   width="736.09674"
   height="118.03812"
   xml:space="preserve"
   sodipodi:docname="logo-comue-cmjn.svg"><metadata
     id="metadata7479"><rdf:RDF><cc:Work
         rdf:about=""><dc:format>image/svg+xml</dc:format><dc:type
           rdf:resource="http://purl.org/dc/dcmitype/StillImage" /><dc:title></dc:title></cc:Work></rdf:RDF></metadata><defs
     id="defs7477"><clipPath
       clipPathUnits="userSpaceOnUse"
       id="clipPath7487"><path
         d="m 0,143.287 646.103,0 L 646.103,0 0,0 0,143.287 z"
         id="path7489"
         inkscape:connector-curvature="0" /></clipPath></defs><sodipodi:namedview
     pagecolor="#ffffff"
     bordercolor="#666666"
     borderopacity="1"
     objecttolerance="10"
     gridtolerance="10"
     guidetolerance="10"
     inkscape:pageopacity="0"
     inkscape:pageshadow="2"
     inkscape:window-width="1920"
     inkscape:window-height="1021"
     id="namedview7475"
     showgrid="false"
     inkscape:zoom="1.320306"
     inkscape:cx="535.73938"
     inkscape:cy="64.25"
     inkscape:window-x="-7"
     inkscape:window-y="-10"
     inkscape:window-maximized="1"
     inkscape:current-layer="g7485"
     fit-margin-top="0"
     fit-margin-left="0"
     fit-margin-right="0"
     fit-margin-bottom="0" /><g
     id="g7481"
     inkscape:groupmode="layer"
     inkscape:label="logo-comue-cmjn"
     transform="matrix(1.25,0,0,-1.25,-35.76625,143.3425)"><g
       id="g7483"><g
         id="g7485"
         clip-path="url(#clipPath7487)"><g
           id="g7491"
           transform="translate(84.2385,77.5644)"><path
             d="m 0,0 c 3.307,0 6.01,1.308 8.111,3.926 l 4.314,-4.444 c -3.424,-3.854 -7.458,-5.78 -12.102,-5.78 -4.645,0 -8.471,1.466 -11.476,4.4 -3.006,2.934 -4.509,6.637 -4.509,11.11 0,4.472 1.532,8.203 4.595,11.195 3.064,2.991 6.81,4.487 11.239,4.487 4.947,0 9.088,-1.884 12.425,-5.652 L 8.413,14.496 c -2.13,2.646 -4.776,3.969 -7.939,3.969 -2.531,0 -4.696,-0.827 -6.493,-2.48 -1.798,-1.654 -2.696,-3.883 -2.696,-6.687 0,-2.805 0.847,-5.056 2.544,-6.752 C -4.473,0.849 -2.417,0 0,0"
             style="fill:#5c5c5c;fill-opacity:1;fill-rule:nonzero;stroke:none"
             id="path7493"
             inkscape:connector-curvature="0" /></g><g
           id="g7495"
           transform="translate(105.5936,83.216)"><path
             d="m 0,0 c 0,-1.898 0.539,-3.444 1.618,-4.638 1.078,-1.193 2.459,-1.79 4.141,-1.79 1.683,0 3.064,0.597 4.142,1.79 1.079,1.194 1.618,2.74 1.618,4.638 0,1.898 -0.539,3.452 -1.618,4.66 C 8.823,5.868 7.442,6.471 5.759,6.471 4.077,6.471 2.696,5.868 1.618,4.66 0.539,3.452 0,1.898 0,0 m 18.034,0 c 0,-3.365 -1.165,-6.198 -3.495,-8.498 -2.33,-2.303 -5.256,-3.452 -8.78,-3.452 -3.523,0 -6.45,1.149 -8.78,3.452 -2.329,2.3 -3.494,5.133 -3.494,8.498 0,3.366 1.165,6.206 3.494,8.521 2.33,2.315 5.257,3.473 8.78,3.473 3.524,0 6.45,-1.158 8.78,-3.473 C 16.869,6.206 18.034,3.366 18.034,0"
             style="fill:#5c5c5c;fill-opacity:1;fill-rule:nonzero;stroke:none"
             id="path7497"
             inkscape:connector-curvature="0" /></g><g
           id="g7499"
           transform="translate(149.7284,84.1227)"><path
             d="m 0,0 0,-12.512 -6.514,0 0,12.684 c 0,1.84 -0.281,3.193 -0.843,4.055 -0.56,0.864 -1.466,1.295 -2.717,1.295 -1.251,0 -2.358,-0.468 -3.322,-1.402 C -14.36,3.185 -14.841,1.811 -14.841,0 l 0,-12.512 -6.472,0 0,23.212 6.472,0 0,-2.632 c 1.782,2.013 3.825,3.019 6.126,3.019 1.467,0 2.797,-0.431 3.99,-1.294 1.194,-0.863 2.093,-1.913 2.697,-3.15 0.891,1.41 2.092,2.503 3.603,3.28 1.509,0.777 3.026,1.164 4.551,1.164 2.732,0 4.932,-0.813 6.601,-2.437 1.668,-1.625 2.503,-3.977 2.503,-7.054 l 0,-14.108 -6.516,0 0,12.684 c 0,3.566 -1.308,5.35 -3.925,5.35 C 3.495,5.522 2.373,5.054 1.423,4.12 0.475,3.185 0,1.811 0,0"
             style="fill:#5c5c5c;fill-opacity:1;fill-rule:nonzero;stroke:none"
             id="path7501"
             inkscape:connector-curvature="0" /></g><g
           id="g7503"
           transform="translate(192.1379,84.1227)"><path
             d="m 0,0 0,-12.512 -6.514,0 0,12.684 c 0,1.84 -0.281,3.193 -0.843,4.055 -0.56,0.864 -1.466,1.295 -2.717,1.295 -1.251,0 -2.358,-0.468 -3.322,-1.402 C -14.36,3.185 -14.841,1.811 -14.841,0 l 0,-12.512 -6.472,0 0,23.212 6.472,0 0,-2.632 c 1.782,2.013 3.825,3.019 6.126,3.019 1.467,0 2.797,-0.431 3.99,-1.294 1.194,-0.863 2.093,-1.913 2.697,-3.15 0.891,1.41 2.092,2.503 3.603,3.28 1.509,0.777 3.026,1.164 4.551,1.164 2.732,0 4.932,-0.813 6.601,-2.437 1.668,-1.625 2.503,-3.977 2.503,-7.054 l 0,-14.108 -6.516,0 0,12.684 c 0,3.566 -1.308,5.35 -3.925,5.35 C 3.495,5.522 2.373,5.054 1.423,4.12 0.475,3.185 0,1.811 0,0"
             style="fill:#5c5c5c;fill-opacity:1;fill-rule:nonzero;stroke:none"
             id="path7505"
             inkscape:connector-curvature="0" /></g><g
           id="g7507"
           transform="translate(228.2049,82.3104)"><path
             d="m 0,0 0,12.512 6.515,0 0,-23.212 -6.515,0 0,3.063 c -1.61,-2.272 -3.688,-3.407 -6.234,-3.407 -2.545,0 -4.68,0.798 -6.407,2.394 -1.725,1.596 -2.589,3.962 -2.589,7.097 l 0,14.065 6.516,0 0,-12.642 c 0,-3.567 1.308,-5.35 3.925,-5.35 1.294,0 2.416,0.468 3.366,1.403 C -0.474,-3.143 0,-1.783 0,0"
             style="fill:#5c5c5c;fill-opacity:1;fill-rule:nonzero;stroke:none"
             id="path7509"
             inkscape:connector-curvature="0" /></g><g
           id="g7511"
           transform="translate(247.3181,84.5535)"><path
             d="m 0,0 0,-12.943 -6.472,0 0,23.212 6.472,0 0,-2.589 c 1.955,1.984 4.155,2.977 6.6,2.977 2.445,0 4.494,-0.863 6.148,-2.589 1.653,-1.726 2.481,-4.027 2.481,-6.902 l 0,-14.109 -6.472,0 0,13.116 c 0,3.565 -1.308,5.35 -3.925,5.35 C 3.538,5.523 2.408,5.054 1.445,4.121 0.481,3.185 0,1.812 0,0"
             style="fill:#5c5c5c;fill-opacity:1;fill-rule:nonzero;stroke:none"
             id="path7513"
             inkscape:connector-curvature="0" /></g><g
           id="g7515"
           transform="translate(281.6159,80.4552)"><path
             d="m 0,0 0,1.122 -4.055,0 c -2.589,0 -3.884,-0.806 -3.884,-2.416 0,-0.835 0.309,-1.474 0.928,-1.92 0.618,-0.446 1.502,-0.668 2.653,-0.668 1.15,0 2.164,0.351 3.042,1.056 C -0.439,-2.122 0,-1.18 0,0 m 6.514,-8.844 -6.083,0 0,2.803 c -1.669,-2.099 -3.732,-3.148 -6.191,-3.148 -2.459,0 -4.523,0.711 -6.191,2.135 -1.668,1.424 -2.502,3.322 -2.502,5.695 0,2.373 0.863,4.149 2.588,5.328 1.726,1.179 4.084,1.769 7.076,1.769 l 4.832,0 0,0.13 c 0,2.473 -1.31,3.71 -3.926,3.71 -1.122,0 -2.308,-0.223 -3.559,-0.669 C -8.694,8.463 -9.751,7.91 -10.614,7.248 l -2.89,4.185 c 3.048,2.214 6.529,3.322 10.44,3.322 2.819,0 5.12,-0.705 6.903,-2.114 1.784,-1.41 2.675,-3.639 2.675,-6.687 l 0,-14.798 z"
             style="fill:#5c5c5c;fill-opacity:1;fill-rule:nonzero;stroke:none"
             id="path7517"
             inkscape:connector-curvature="0" /></g><g
           id="g7519"
           transform="translate(309.0105,82.3104)"><path
             d="m 0,0 0,12.512 6.515,0 0,-23.212 -6.515,0 0,3.063 c -1.61,-2.272 -3.688,-3.407 -6.234,-3.407 -2.545,0 -4.68,0.798 -6.407,2.394 -1.725,1.596 -2.589,3.962 -2.589,7.097 l 0,14.065 6.516,0 0,-12.642 c 0,-3.567 1.308,-5.35 3.925,-5.35 1.294,0 2.416,0.468 3.366,1.403 C -0.474,-3.143 0,-1.783 0,0"
             style="fill:#5c5c5c;fill-opacity:1;fill-rule:nonzero;stroke:none"
             id="path7521"
             inkscape:connector-curvature="0" /></g><g
           id="g7523"
           transform="translate(329.3741,90.1622)"><path
             d="m 0,0 0,-10.398 c 0,-0.891 0.23,-1.589 0.691,-2.091 0.46,-0.504 1.006,-0.756 1.639,-0.756 1.208,0 2.228,0.546 3.063,1.64 l 2.416,-4.53 c -2.013,-1.842 -4.135,-2.761 -6.363,-2.761 -2.23,0 -4.113,0.732 -5.652,2.2 -1.539,1.466 -2.308,3.465 -2.308,5.996 l 0,10.7 -2.718,0 0,4.66 2.718,0 0,6.945 6.514,0 0,-6.945 5.609,0 L 5.609,0 0,0 z"
             style="fill:#5c5c5c;fill-opacity:1;fill-rule:nonzero;stroke:none"
             id="path7525"
             inkscape:connector-curvature="0" /></g><g
           id="g7527"
           transform="translate(353.1463,97.9709)"><path
             d="M 0,0 -6.169,0 -0.69,7.637 5.996,4.832 0,0 z m 1.38,-9.232 c -0.891,0.748 -1.977,1.121 -3.257,1.121 -1.28,0 -2.452,-0.387 -3.516,-1.164 -1.064,-0.777 -1.682,-1.827 -1.855,-3.15 l 10.182,0 C 2.79,-11.044 2.272,-9.981 1.38,-9.232 m 6.213,-13.762 c -2.617,-2.474 -5.688,-3.711 -9.211,-3.711 -3.523,0 -6.436,1.085 -8.737,3.257 -2.301,2.171 -3.45,5.084 -3.45,8.736 0,3.653 1.171,6.558 3.516,8.716 2.344,2.157 5.112,3.235 8.305,3.235 3.193,0 5.903,-0.963 8.132,-2.891 2.229,-1.927 3.344,-4.573 3.344,-7.937 l 0,-3.452 -16.913,0 c 0.201,-1.266 0.864,-2.302 1.985,-3.107 1.122,-0.805 2.387,-1.207 3.797,-1.207 2.272,0 4.141,0.762 5.608,2.286 l 3.624,-3.925 z"
             style="fill:#5c5c5c;fill-opacity:1;fill-rule:nonzero;stroke:none"
             id="path7529"
             inkscape:connector-curvature="0" /></g><g
           id="g7531"
           transform="translate(76.4874,34.5294)"
           style="fill:#000000"><path
             d="m 0,0 c 0.864,-1.074 2.026,-1.611 3.488,-1.611 1.462,0 2.618,0.537 3.471,1.611 0.852,1.074 1.279,2.541 1.279,4.401 l 0,12.823 5.182,0 0,-12.988 c 0,-3.367 -0.93,-5.952 -2.79,-7.757 -1.861,-1.806 -4.241,-2.707 -7.142,-2.707 -2.902,0 -5.288,0.907 -7.159,2.723 -1.872,1.816 -2.807,4.396 -2.807,7.741 l 0,12.988 5.182,0 0,-12.823 C -1.296,2.541 -0.864,1.074 0,0"
             style="fill:#000000;fill-opacity:1;fill-rule:nonzero;stroke:none"
             id="path7533"
             inkscape:connector-curvature="0" /></g><g
           id="g7535"
           transform="translate(111.5332,51.7529)"
           style="fill:#000000"><path
             d="m 0,0 5.182,0 0,-23.219 -5.182,0 -11.062,14.549 0,-14.549 -5.182,0 0,23.219 4.849,0 L 0,-14.948 0,0 z"
             style="fill:#000000;fill-opacity:1;fill-rule:nonzero;stroke:none"
             id="path7537"
             inkscape:connector-curvature="0" /></g><path
           d="m 122.428,51.753 5.182,0 0,-23.219 -5.182,0 0,23.219 z"
           style="fill:#000000;fill-opacity:1;fill-rule:nonzero;stroke:none"
           id="path7539"
           inkscape:connector-curvature="0" /><g
           id="g7541"
           transform="translate(141.8934,36.9711)"
           style="fill:#000000"><path
             d="m 0,0 5.913,14.782 5.614,0 -9.334,-23.22 -4.385,0 -9.334,23.22 5.614,0 L 0,0 z"
             style="fill:#000000;fill-opacity:1;fill-rule:nonzero;stroke:none"
             id="path7543"
             inkscape:connector-curvature="0" /></g><g
           id="g7545"
           transform="translate(172.9193,51.7529)"
           style="fill:#000000"><path
             d="m 0,0 0,-4.617 -11.56,0 0,-4.783 10.397,0 0,-4.418 -10.397,0 0,-4.817 11.926,0 0,-4.584 -17.108,0 0,23.219 L 0,0 z"
             style="fill:#000000;fill-opacity:1;fill-rule:nonzero;stroke:none"
             id="path7547"
             inkscape:connector-curvature="0" /></g><g
           id="g7549"
           transform="translate(190.4919,41.2896)"
           style="fill:#000000"><path
             d="m 0,0 c 0.642,0.576 0.964,1.489 0.964,2.74 0,1.251 -0.333,2.11 -0.997,2.575 -0.665,0.465 -1.827,0.697 -3.488,0.697 l -3.887,0 0,-6.876 3.787,0 c 1.772,0 2.978,0.287 3.621,0.864 m 6.245,2.757 c 0,-3.721 -1.473,-6.123 -4.418,-7.209 l 5.879,-8.304 -6.378,0 -5.149,7.408 -3.587,0 0,-7.408 -5.182,0 0,23.219 8.803,0 c 3.609,0 6.184,-0.608 7.723,-1.826 1.539,-1.218 2.309,-3.179 2.309,-5.88"
             style="fill:#000000;fill-opacity:1;fill-rule:nonzero;stroke:none"
             id="path7551"
             inkscape:connector-curvature="0" /></g><g
           id="g7553"
           transform="translate(207.4822,47.1193)"
           style="fill:#000000"><path
             d="m 0,0 c -0.498,-0.41 -0.747,-0.952 -0.747,-1.628 0,-0.676 0.304,-1.212 0.913,-1.611 0.609,-0.399 2.015,-0.869 4.219,-1.411 2.203,-0.544 3.914,-1.358 5.132,-2.442 1.218,-1.085 1.827,-2.669 1.827,-4.75 0,-2.082 -0.781,-3.771 -2.341,-5.066 -1.562,-1.296 -3.616,-1.943 -6.163,-1.943 -3.676,0 -6.987,1.361 -9.932,4.086 l 3.089,3.786 c 2.503,-2.192 4.817,-3.288 6.943,-3.288 0.952,0 1.699,0.204 2.242,0.614 0.543,0.41 0.814,0.964 0.814,1.661 0,0.697 -0.288,1.251 -0.864,1.661 -0.576,0.409 -1.716,0.825 -3.421,1.246 -2.702,0.642 -4.679,1.478 -5.929,2.508 -1.252,1.029 -1.877,2.646 -1.877,4.85 0,2.203 0.791,3.903 2.375,5.098 1.583,1.196 3.56,1.794 5.929,1.794 1.55,0 3.1,-0.265 4.65,-0.797 C 8.41,3.837 9.761,3.084 10.912,2.109 L 8.288,-1.677 C 6.273,-0.15 4.191,0.615 2.043,0.615 1.18,0.615 0.499,0.409 0,0"
             style="fill:#000000;fill-opacity:1;fill-rule:nonzero;stroke:none"
             id="path7555"
             inkscape:connector-curvature="0" /></g><path
           d="m 223.245,51.753 5.182,0 0,-23.219 -5.182,0 0,23.219 z"
           style="fill:#000000;fill-opacity:1;fill-rule:nonzero;stroke:none"
           id="path7557"
           inkscape:connector-curvature="0" /><g
           id="g7559"
           transform="translate(243.9722,47.269)"
           style="fill:#000000"><path
             d="m 0,0 0,-18.736 -5.182,0 0,18.736 -6.577,0 0,4.484 18.336,0 L 6.577,0 0,0 z"
             style="fill:#000000;fill-opacity:1;fill-rule:nonzero;stroke:none"
             id="path7561"
             inkscape:connector-curvature="0" /></g><g
           id="g7563"
           transform="translate(264.601,54.145)"
           style="fill:#000000"><path
             d="M 0,0 -4.75,0 -0.532,5.88 4.617,3.72 0,0 z m 6.477,-2.392 0,-4.617 -11.56,0 0,-4.784 10.397,0 0,-4.417 -10.397,0 0,-4.818 11.926,0 0,-4.584 -17.108,0 0,23.22 16.742,0 z"
             style="fill:#000000;fill-opacity:1;fill-rule:nonzero;stroke:none"
             id="path7565"
             inkscape:connector-curvature="0" /></g><g
           id="g7567"
           transform="translate(308.4166,43.9715)"
           style="fill:#000000"><path
             d="m 0,0 6.773,0 0,-10.7 c -2.992,-3.336 -7.133,-5.003 -12.425,-5.003 -4.43,0 -8.147,1.466 -11.153,4.4 -3.005,2.933 -4.508,6.636 -4.508,11.11 0,4.472 1.532,8.203 4.595,11.194 3.063,2.992 6.759,4.488 11.088,4.488 4.328,0 8.089,-1.424 11.282,-4.272 L 2.157,6.169 c -1.352,1.18 -2.596,1.992 -3.732,2.438 -1.136,0.446 -2.366,0.669 -3.689,0.669 -2.56,0 -4.717,-0.87 -6.471,-2.61 -1.754,-1.741 -2.632,-4.034 -2.632,-6.882 0,-2.847 0.841,-5.126 2.524,-6.838 1.683,-1.711 3.688,-2.567 6.018,-2.567 2.33,0 4.272,0.446 5.825,1.337 L 0,0 z"
             style="fill:#000000;fill-opacity:1;fill-rule:nonzero;stroke:none"
             id="path7569"
             inkscape:connector-curvature="0" /></g><g
           id="g7571"
           transform="translate(332.7496,46.1286)"
           style="fill:#000000"><path
             d="m 0,0 c -1.927,0 -3.366,-0.683 -4.314,-2.049 -0.95,-1.366 -1.424,-3.171 -1.424,-5.415 l 0,-10.052 -6.472,0 0,23.212 6.472,0 0,-3.064 c 0.834,0.95 1.877,1.754 3.128,2.416 1.251,0.662 2.524,1.007 3.817,1.036 L 1.252,0 0,0 z"
             style="fill:#000000;fill-opacity:1;fill-rule:nonzero;stroke:none"
             id="path7573"
             inkscape:connector-curvature="0" /></g><g
           id="g7575"
           transform="translate(352.1636,45.7408)"
           style="fill:#000000"><path
             d="m 0,0 c -0.892,0.748 -1.978,1.122 -3.257,1.122 -1.281,0 -2.453,-0.388 -3.516,-1.165 -1.065,-0.777 -1.682,-1.827 -1.855,-3.15 l 10.181,0 C 1.409,-1.812 0.892,-0.749 0,0 m 6.212,-13.762 c -2.616,-2.474 -5.688,-3.711 -9.21,-3.711 -3.524,0 -6.436,1.085 -8.737,3.257 -2.301,2.171 -3.451,5.084 -3.451,8.736 0,3.653 1.171,6.559 3.516,8.716 2.344,2.157 5.113,3.235 8.305,3.235 3.193,0 5.903,-0.963 8.133,-2.89 2.229,-1.928 3.344,-4.574 3.344,-7.938 l 0,-3.452 -16.913,0 c 0.201,-1.266 0.863,-2.302 1.985,-3.107 1.121,-0.805 2.387,-1.207 3.796,-1.207 2.272,0 4.142,0.762 5.609,2.286 l 3.623,-3.925 z"
             style="fill:#000000;fill-opacity:1;fill-rule:nonzero;stroke:none"
             id="path7577"
             inkscape:connector-curvature="0" /></g><g
           id="g7579"
           transform="translate(371.4056,41.5555)"
           style="fill:#000000"><path
             d="m 0,0 0,-12.943 -6.472,0 0,23.212 6.472,0 0,-2.589 c 1.955,1.984 4.155,2.977 6.6,2.977 2.445,0 4.494,-0.863 6.148,-2.589 1.653,-1.726 2.481,-4.027 2.481,-6.902 l 0,-14.109 -6.472,0 0,13.116 c 0,3.565 -1.308,5.35 -3.925,5.35 C 3.538,5.523 2.409,5.054 1.445,4.121 0.481,3.185 0,1.812 0,0"
             style="fill:#000000;fill-opacity:1;fill-rule:nonzero;stroke:none"
             id="path7581"
             inkscape:connector-curvature="0" /></g><g
           id="g7583"
           transform="translate(397.6798,40.218)"
           style="fill:#000000"><path
             d="m 0,0 c 0,-1.898 0.539,-3.444 1.618,-4.638 1.078,-1.193 2.459,-1.79 4.141,-1.79 1.683,0 3.064,0.597 4.142,1.79 1.079,1.194 1.618,2.74 1.618,4.638 0,1.898 -0.539,3.452 -1.618,4.66 C 8.823,5.868 7.442,6.471 5.759,6.471 4.077,6.471 2.696,5.868 1.618,4.66 0.539,3.452 0,1.898 0,0 m 18.034,0 c 0,-3.365 -1.165,-6.198 -3.495,-8.498 -2.33,-2.303 -5.256,-3.452 -8.78,-3.452 -3.523,0 -6.45,1.149 -8.78,3.452 -2.329,2.3 -3.494,5.133 -3.494,8.498 0,3.366 1.165,6.206 3.494,8.521 2.33,2.315 5.257,3.473 8.78,3.473 3.524,0 6.45,-1.158 8.78,-3.473 C 16.869,6.206 18.034,3.366 18.034,0"
             style="fill:#000000;fill-opacity:1;fill-rule:nonzero;stroke:none"
             id="path7585"
             inkscape:connector-curvature="0" /></g><g
           id="g7587"
           transform="translate(426.8867,40.1965)"
           style="fill:#000000"><path
             d="m 0,0 c 0,-1.884 0.524,-3.423 1.575,-4.616 1.049,-1.194 2.322,-1.791 3.818,-1.791 1.495,0 2.805,0.597 3.926,1.791 1.122,1.193 1.682,2.724 1.682,4.595 0,1.869 -0.546,3.436 -1.639,4.703 C 8.269,5.947 6.96,6.58 5.437,6.58 3.911,6.58 2.624,5.954 1.575,4.703 0.524,3.452 0,1.883 0,0 m 6.989,12.016 c 2.819,0 5.278,-1.1 7.378,-3.301 2.1,-2.2 3.15,-5.026 3.15,-8.478 0,-3.451 -1.078,-6.342 -3.236,-8.671 -2.158,-2.33 -4.609,-3.495 -7.356,-3.495 -2.747,0 -5.027,1.136 -6.838,3.408 l 0,-3.063 -6.472,0 0,32.012 6.472,0 0,-11.389 c 1.782,1.984 4.083,2.977 6.902,2.977"
             style="fill:#000000;fill-opacity:1;fill-rule:nonzero;stroke:none"
             id="path7589"
             inkscape:connector-curvature="0" /></g><path
           d="m 455.705,28.613 -6.471,0 0,32.012 6.471,0 0,-32.012 z"
           style="fill:#000000;fill-opacity:1;fill-rule:nonzero;stroke:none"
           id="path7591"
           inkscape:connector-curvature="0" /><g
           id="g7593"
           transform="translate(475.7229,45.7408)"
           style="fill:#000000"><path
             d="m 0,0 c -0.892,0.748 -1.977,1.122 -3.257,1.122 -1.281,0 -2.452,-0.388 -3.515,-1.165 -1.066,-0.777 -1.682,-1.827 -1.856,-3.15 l 10.181,0 C 1.409,-1.812 0.892,-0.749 0,0 m 6.214,-13.762 c -2.617,-2.474 -5.69,-3.711 -9.211,-3.711 -3.524,0 -6.437,1.085 -8.738,3.257 -2.301,2.171 -3.451,5.084 -3.451,8.736 0,3.653 1.171,6.559 3.517,8.716 2.344,2.157 5.112,3.235 8.304,3.235 3.193,0 5.905,-0.963 8.133,-2.89 2.23,-1.928 3.345,-4.574 3.345,-7.938 l 0,-3.452 -16.913,0 c 0.2,-1.266 0.863,-2.302 1.985,-3.107 1.121,-0.805 2.387,-1.207 3.796,-1.207 2.271,0 4.141,0.762 5.608,2.286 l 3.625,-3.925 z"
             style="fill:#000000;fill-opacity:1;fill-rule:nonzero;stroke:none"
             id="path7595"
             inkscape:connector-curvature="0" /></g><g
           id="g7597"
           transform="translate(512.9115,49.7961)"
           style="fill:#000000"><path
             d="m 0,0 -3.796,-8.758 7.549,0 L 0,0 z m 9.103,-21.183 -2.804,6.514 -12.641,0 -2.804,-6.514 -7.161,0 13.028,30.156 6.515,0 13.03,-30.156 -7.163,0 z"
             style="fill:#000000;fill-opacity:1;fill-rule:nonzero;stroke:none"
             id="path7599"
             inkscape:connector-curvature="0" /></g><path
           d="m 538.496,28.613 -6.471,0 0,32.012 6.471,0 0,-32.012 z"
           style="fill:#000000;fill-opacity:1;fill-rule:nonzero;stroke:none"
           id="path7601"
           inkscape:connector-curvature="0" /><g
           id="g7603"
           transform="translate(551.0068,40.1965)"
           style="fill:#000000"><path
             d="m 0,0 c 0,-1.884 0.524,-3.423 1.575,-4.616 1.05,-1.194 2.322,-1.791 3.818,-1.791 1.495,0 2.806,0.597 3.927,1.791 1.122,1.193 1.683,2.724 1.683,4.595 0,1.869 -0.548,3.436 -1.64,4.703 C 8.27,5.947 6.961,6.58 5.438,6.58 3.912,6.58 2.625,5.954 1.575,4.703 0.524,3.452 0,1.883 0,0 m 7.12,12.016 c 2.703,0 5.112,-1.129 7.226,-3.388 2.114,-2.258 3.171,-5.097 3.171,-8.519 0,-3.424 -1.057,-6.286 -3.171,-8.586 -2.114,-2.302 -4.587,-3.452 -7.421,-3.452 -2.832,0 -5.112,1.136 -6.837,3.408 l 0,-11.432 -6.473,0 0,31.581 6.473,0 0,-2.589 c 1.983,1.984 4.327,2.977 7.032,2.977"
             style="fill:#000000;fill-opacity:1;fill-rule:nonzero;stroke:none"
             id="path7605"
             inkscape:connector-curvature="0" /></g><g
           id="g7607"
           transform="translate(587.2457,45.7408)"
           style="fill:#000000"><path
             d="m 0,0 c -0.892,0.748 -1.977,1.122 -3.257,1.122 -1.281,0 -2.452,-0.388 -3.515,-1.165 -1.066,-0.777 -1.682,-1.827 -1.856,-3.15 l 10.181,0 C 1.409,-1.812 0.892,-0.749 0,0 m 6.214,-13.762 c -2.617,-2.474 -5.69,-3.711 -9.211,-3.711 -3.524,0 -6.437,1.085 -8.738,3.257 -2.301,2.171 -3.451,5.084 -3.451,8.736 0,3.653 1.171,6.559 3.517,8.716 2.344,2.157 5.112,3.235 8.304,3.235 3.193,0 5.905,-0.963 8.133,-2.89 2.23,-1.928 3.345,-4.574 3.345,-7.938 l 0,-3.452 -16.913,0 c 0.2,-1.266 0.863,-2.302 1.985,-3.107 1.121,-0.805 2.387,-1.207 3.796,-1.207 2.271,0 4.141,0.762 5.608,2.286 l 3.625,-3.925 z"
             style="fill:#000000;fill-opacity:1;fill-rule:nonzero;stroke:none"
             id="path7609"
             inkscape:connector-curvature="0" /></g><g
           id="g7611"
           transform="translate(617.4904,35.8394)"
           style="fill:#000000"><path
             d="m 0,0 c 0,-2.287 -0.842,-4.12 -2.525,-5.501 -1.682,-1.381 -3.817,-2.07 -6.406,-2.07 -1.726,0 -3.524,0.309 -5.393,0.927 -1.869,0.618 -3.552,1.532 -5.047,2.739 l 2.847,4.056 c 2.417,-1.87 4.991,-2.804 7.724,-2.804 0.833,0 1.495,0.165 1.983,0.496 0.49,0.33 0.735,0.769 0.735,1.316 0,0.546 -0.34,1.049 -1.015,1.509 -0.676,0.46 -1.654,0.892 -2.934,1.295 -1.279,0.403 -2.258,0.747 -2.933,1.035 -0.677,0.287 -1.446,0.705 -2.308,1.252 -1.755,1.092 -2.632,2.71 -2.632,4.853 0,2.142 0.862,3.89 2.587,5.242 1.728,1.352 3.956,2.028 6.689,2.028 2.732,0 5.463,-0.921 8.196,-2.761 L -2.847,9.298 c -2.013,1.38 -4.02,2.07 -6.018,2.07 -2,0 -2.999,-0.547 -2.999,-1.64 0,-0.603 0.316,-1.078 0.95,-1.423 0.631,-0.345 1.682,-0.749 3.149,-1.208 1.466,-0.46 2.508,-0.813 3.126,-1.058 C -4.02,5.796 -3.279,5.414 -2.415,4.896 -0.806,3.919 0,2.286 0,0"
             style="fill:#000000;fill-opacity:1;fill-rule:nonzero;stroke:none"
             id="path7613"
             inkscape:connector-curvature="0" /></g><path
           d="m 28.613,114.674 28.613,0 0,-44.072 -28.613,0 0,44.072 z"
           style="fill:#5b5b5c;fill-opacity:1;fill-rule:nonzero;stroke:none"
           id="path7615"
           inkscape:connector-curvature="0" /><g
           id="g7617"
           transform="translate(54.0322,62.2451)"
           style="fill:#000000"><path
             d="M 0,0 C -0.329,0.506 -0.593,1.036 -0.797,1.551 -1.041,1.068 -1.351,0.552 -1.737,0.027 -1.406,-0.298 -1.106,-0.656 -0.855,-1.028 -0.61,-0.667 -0.32,-0.318 0,0"
             style="fill:#000000;fill-opacity:1;fill-rule:nonzero;stroke:none"
             id="path7619"
             inkscape:connector-curvature="0" /></g><g
           id="g7621"
           transform="translate(42.0666,54.4078)"
           style="fill:#000000"><path
             d="m 0,0 c 0.444,-0.741 0.827,-1.38 2.21,-1.825 1.793,-0.576 3.728,-1.322 4.304,-1.547 0.136,0.255 0.293,0.495 0.466,0.724 L 3.387,4.519 C 3.017,4.302 2.582,4.154 2.121,4.003 1.505,3.801 0.806,3.573 0.19,3.139 -0.347,2.762 -0.519,2.171 -0.573,1.852 -0.656,1.375 -0.583,0.889 -0.388,0.612 -0.25,0.415 -0.126,0.209 0,0"
             style="fill:#000000;fill-opacity:1;fill-rule:nonzero;stroke:none"
             id="path7623"
             inkscape:connector-curvature="0" /></g><g
           id="g7625"
           transform="translate(52.2879,53.824)"
           style="fill:#000000"><path
             d="M 0,0 C 0.003,1.3 0.013,4.321 0.053,5.161 0.082,5.749 -1.035,7.669 -2.465,8.101 -3.368,8.373 -4.17,8.061 -4.918,7.146 -5.048,6.987 -5.168,6.823 -5.287,6.661 -5.574,6.269 -5.901,5.838 -6.353,5.453 l 5.391,-5.75 C -0.654,-0.17 -0.333,-0.069 0,0"
             style="fill:#000000;fill-opacity:1;fill-rule:nonzero;stroke:none"
             id="path7627"
             inkscape:connector-curvature="0" /></g><g
           id="g7629"
           transform="translate(55.621,33.6795)"
           style="fill:#000000"><path
             d="M 0,0 C -0.227,0.064 -0.447,0.137 -0.665,0.21 -1.112,0.36 -1.506,0.486 -1.931,0.512 L -2.044,0.52 c -0.012,0 -0.022,0.002 -0.034,0.002 -0.242,0 -0.638,-0.121 -1.057,-0.249 -0.696,-0.214 -1.563,-0.479 -2.566,-0.479 -1.32,0 -2.444,0.777 -3.07,1.753 -2.69,-0.406 -4.096,-1.764 -4.11,-1.778 l -1.251,1.105 c 0.013,0.017 1.208,1.598 1.567,3.465 -0.518,0.024 -1.059,0.157 -1.561,0.421 -0.89,0.469 -1.532,1.22 -1.806,2.113 -0.295,0.959 -0.297,1.865 -0.298,2.594 0,0.438 -0.001,0.851 -0.072,1.083 -0.004,0.011 -0.009,0.02 -0.012,0.031 l -0.041,0.106 c -0.15,0.398 -0.385,0.738 -0.66,1.12 -0.134,0.187 -0.269,0.376 -0.397,0.575 -1.003,1.56 -1.043,3.153 -0.114,4.488 0.062,0.09 0.141,0.171 0.213,0.256 -1.449,1.983 -3.12,2.636 -3.138,2.643 l 0.472,1.6 c 0.023,-0.005 2.255,-0.475 4.205,0.172 -0.075,0.421 -0.08,0.873 -0.003,1.323 0.171,0.992 0.686,1.834 1.45,2.372 0.82,0.577 1.682,0.859 2.374,1.085 0.416,0.136 0.809,0.265 1.007,0.405 0.01,0.007 0.017,0.015 0.026,0.021 l 0.089,0.072 c 0.333,0.266 0.583,0.596 0.862,0.976 0.137,0.185 0.273,0.371 0.422,0.553 0.895,1.096 1.982,1.666 3.138,1.666 0.359,0 0.725,-0.055 1.095,-0.167 0.216,-0.066 0.429,-0.157 0.639,-0.264 1.433,1.943 1.552,3.654 1.553,3.672 l 1.669,0.016 c 0.002,-0.022 0.179,-2.063 1.206,-3.705 0.221,0.115 0.446,0.212 0.675,0.281 0.37,0.112 0.736,0.167 1.096,0.167 0.027,0 0.054,-0.004 0.081,-0.005 l 0,7.914 -28.613,0 0,-43.072 28.613,0 0,4.952 C 1.1,-0.222 0.562,-0.157 0,0"
             style="fill:#000000;fill-opacity:1;fill-rule:nonzero;stroke:none"
             id="path7631"
             inkscape:connector-curvature="0" /></g><g
           id="g7633"
           transform="translate(56.5333,61.9253)"
           style="fill:#000000"><path
             d="m 0,0 c -1.431,-0.432 -2.547,-2.352 -2.518,-2.94 0.039,-0.827 0.05,-3.763 0.053,-5.096 0.37,-0.046 0.727,-0.13 1.07,-0.247 l 2.087,2.227 0,6.146 C 0.468,0.1 0.238,0.072 0,0"
             style="fill:#000000;fill-opacity:1;fill-rule:nonzero;stroke:none"
             id="path7635"
             inkscape:connector-curvature="0" /></g><g
           id="g7637"
           transform="translate(54.9699,43.2878)"
           style="fill:#000000"><path
             d="m 0,0 -1.047,-7.439 c 0.591,-0.055 1.106,-0.219 1.566,-0.373 0.191,-0.064 0.383,-0.13 0.583,-0.185 0.426,-0.12 0.81,-0.166 1.154,-0.137 l 0,7.055 C 1.839,-0.495 1.434,0.077 1.136,0.497 0.78,0.291 0.401,0.122 0,0"
             style="fill:#000000;fill-opacity:1;fill-rule:nonzero;stroke:none"
             id="path7639"
             inkscape:connector-curvature="0" /></g><g
           id="g7641"
           transform="translate(51.0074,43.6086)"
           style="fill:#000000"><path
             d="m 0,0 c -0.515,-0.764 -1.41,-2.068 -2.293,-3.24 -0.875,-1.159 -0.82,-1.903 -0.757,-2.764 0.018,-0.244 0.035,-0.483 0.035,-0.724 0,-0.685 0.863,-1.735 1.927,-1.735 0.753,0 1.456,0.216 2.077,0.406 0.464,0.142 0.905,0.271 1.332,0.307 L 1.224,-0.43 C 0.794,-0.336 0.386,-0.189 0,0"
             style="fill:#000000;fill-opacity:1;fill-rule:nonzero;stroke:none"
             id="path7643"
             inkscape:connector-curvature="0" /></g><g
           id="g7645"
           transform="translate(48.7373,45.6847)"
           style="fill:#000000"><path
             d="m 0,0 -7.771,-1.174 c 0.091,-0.419 0.097,-0.878 0.098,-1.362 0.001,-0.649 0.002,-1.385 0.223,-2.104 0.193,-0.627 0.701,-0.974 0.987,-1.125 0.428,-0.226 0.914,-0.307 1.238,-0.207 0.23,0.071 0.463,0.125 0.701,0.179 0.842,0.192 1.569,0.359 2.421,1.536 1.009,1.397 2.189,2.862 2.684,3.468 C 0.364,-0.544 0.17,-0.281 0,0"
             style="fill:#000000;fill-opacity:1;fill-rule:nonzero;stroke:none"
             id="path7647"
             inkscape:connector-curvature="0" /></g><g
           id="g7649"
           transform="translate(41.2823,52.587)"
           style="fill:#000000"><path
             d="M 0,0 C -0.268,0.328 -0.469,0.658 -0.651,0.961 -0.681,1.012 -0.715,1.06 -0.745,1.111 -1.463,0.853 -2.202,0.713 -2.891,0.655 -2.494,0.277 -2.085,-0.175 -1.689,-0.706 -1.159,-0.391 -0.575,-0.155 0,0"
             style="fill:#000000;fill-opacity:1;fill-rule:nonzero;stroke:none"
             id="path7651"
             inkscape:connector-curvature="0" /></g><g
           id="g7653"
           transform="translate(57.1597,48.4942)"
           style="fill:#000000"><path
             d="m 0,0 c 0,2.079 -1.691,3.77 -3.77,3.77 -2.079,0 -3.77,-1.691 -3.77,-3.77 0,-2.079 1.691,-3.77 3.77,-3.77 C -1.691,-3.77 0,-2.079 0,0"
             style="fill:#000000;fill-opacity:1;fill-rule:nonzero;stroke:none"
             id="path7655"
             inkscape:connector-curvature="0" /></g><g
           id="g7657"
           transform="translate(47.9474,48.4942)"
           style="fill:#000000"><path
             d="M 0,0 C 0,0.309 0.032,0.609 0.081,0.904 -1.097,1.291 -4.097,2.278 -4.904,2.584 -5.455,2.793 -7.626,2.325 -8.48,1.1 c -0.539,-0.774 -0.49,-1.634 0.149,-2.628 0.112,-0.175 0.231,-0.34 0.349,-0.505 0.283,-0.393 0.591,-0.836 0.817,-1.384 l 7.168,3.361 C 0.003,-0.037 0,-0.019 0,0"
             style="fill:#000000;fill-opacity:1;fill-rule:nonzero;stroke:none"
             id="path7659"
             inkscape:connector-curvature="0" /></g><g
           id="g7661"
           transform="translate(46.2893,37.4809)"
           style="fill:#000000"><path
             d="M 0,0 C -0.03,0.414 -0.058,0.873 0.003,1.384 -0.533,1.08 -1.042,0.935 -1.505,0.826 -1.584,0.104 -1.766,-0.588 -1.996,-1.207 c 0.584,0.226 1.265,0.424 2.029,0.559 0,0.016 -0.002,0.032 -0.002,0.047 0,0.2 -0.016,0.399 -0.031,0.601"
             style="fill:#000000;fill-opacity:1;fill-rule:nonzero;stroke:none"
             id="path7663"
             inkscape:connector-curvature="0" /></g></g></g></g></svg>